<svg xmlns="http://www.w3.org/2000/svg" xmlns:xlink="http://www.w3.org/1999/xlink" width="500" zoomAndPan="magnify" viewBox="0 0 375 374.999991" height="500" preserveAspectRatio="xMidYMid meet" version="1.0"><defs><clipPath id="967dd4cc1a"><path d="M 16.023438 0 L 358.773438 0 L 358.773438 248 L 16.023438 248 Z M 16.023438 0 " clip-rule="nonzero"/></clipPath><clipPath id="5c8e46f6a9"><path d="M 16.023438 9 L 358.773438 9 L 358.773438 375 L 16.023438 375 Z M 16.023438 9 " clip-rule="nonzero"/></clipPath></defs><g clip-path="url(#967dd4cc1a)"><path fill="#ffffff" d="M 16.023438 30.132812 C 16.023438 30.132812 39.511719 19.28125 68.683594 16.511719 C 68.683594 16.511719 163.835938 52.886719 187.398438 71.75 C 187.398438 71.75 271.851562 12.992188 312.320312 0.71875 C 312.320312 0.71875 345.457031 0.046875 358.773438 9.699219 L 335.808594 49.894531 C 335.808594 49.894531 347.476562 100.863281 334.761719 145.699219 C 309.625 234.316406 241.707031 325.332031 168.097656 135.21875 C 168.097656 135.21875 83.792969 119.277344 60.230469 96.671875 C 36.667969 74.070312 16.023438 30.132812 16.023438 30.132812 Z M 16.023438 30.132812 " fill-opacity="1" fill-rule="nonzero"/></g><g clip-path="url(#5c8e46f6a9)"><path fill="#2c346b" d="M 216.796875 106.253906 C 196.824219 123.617188 184.179688 123.617188 168.621094 107.898438 C 120.671875 76.6875 69.433594 50.566406 16.023438 30.132812 C 23.128906 125.191406 28.289062 195.621094 29.785156 290.902344 C 40.859375 300.332031 135.785156 352.875 168.546875 374.953125 C 184.332031 373.683594 195.851562 356.316406 215.75 374.503906 C 253.597656 344.640625 292.199219 316.875 336.78125 298.609375 C 340.148438 203.253906 349.945312 104.683594 358.773438 9.699219 C 307.234375 30.359375 261.453125 64.9375 216.796875 106.253906 Z M 330.199219 140.757812 C 330.199219 140.757812 272.75 175.335938 230.785156 215.457031 L 230.785156 150.113281 C 230.785156 150.113281 286.738281 90.386719 334.3125 75.492188 Z M 330.199219 140.757812 " fill-opacity="1" fill-rule="nonzero"/></g><path fill="#e598d8" d="M 168.546875 374.953125 C 168.621094 308.414062 168.621094 107.976562 168.621094 107.976562 C 187.921875 105.878906 197.421875 106.777344 216.796875 106.328125 C 213.953125 143.003906 215.671875 374.582031 215.671875 374.582031 C 198.769531 374.953125 184.78125 373.757812 168.546875 374.953125 Z M 168.546875 374.953125 " fill-opacity="1" fill-rule="nonzero"/><path fill="#2c346b" d="M 232.730469 83.949219 C 232.578125 84.097656 232.28125 83.875 232.429688 83.722656 C 242.003906 70.699219 255.09375 60.523438 267.8125 50.640625 C 280.976562 40.464844 294.589844 30.433594 309.179688 22.351562 C 310.074219 21.824219 310.824219 23.171875 310 23.695312 C 282.921875 41.585938 254.273438 59.175781 232.730469 83.949219 Z M 48.710938 35.148438 C 77.960938 47.574219 106.757812 60.148438 134.289062 76.238281 C 134.511719 76.390625 134.660156 76.015625 134.511719 75.867188 C 108.480469 58.125 79.457031 42.859375 48.9375 34.699219 C 48.636719 34.625 48.414062 35.074219 48.710938 35.148438 Z M 92.847656 44.355469 C 106.683594 50.792969 120.597656 56.703125 133.914062 64.265625 C 147.152344 71.75 159.796875 80.355469 171.988281 89.414062 C 172.363281 89.710938 172.8125 89.113281 172.4375 88.8125 C 149.695312 69.429688 121.871094 52.363281 92.996094 43.90625 C 92.769531 43.832031 92.546875 44.28125 92.847656 44.355469 Z M 90.453125 33.503906 C 103.394531 37.542969 114.914062 43.757812 126.808594 50.191406 C 127.554688 50.566406 128.078125 49.59375 127.480469 49.070312 C 116.632812 41.136719 103.542969 36.046875 90.75 32.453125 C 90.078125 32.230469 89.777344 33.277344 90.453125 33.503906 Z M 261.902344 44.878906 C 270.953125 38.667969 279.855469 32.230469 289.503906 26.839844 C 299.152344 21.453125 309.402344 17.335938 319.050781 12.171875 C 320.097656 11.570312 319.351562 10 318.230469 10.300781 C 307.605469 13.070312 297.359375 18.757812 288.082031 24.59375 C 278.808594 30.433594 269.53125 37.019531 261.828125 44.878906 C 261.828125 44.804688 261.902344 44.953125 261.902344 44.878906 Z M 236.46875 48.246094 C 253 36.046875 270.578125 26.316406 288.683594 16.738281 C 289.429688 16.363281 288.90625 14.941406 288.082031 15.3125 C 269.082031 22.574219 251.429688 34.476562 236.246094 48.023438 C 236.019531 48.097656 236.246094 48.398438 236.46875 48.246094 Z M 236.46875 48.246094 " fill-opacity="1" fill-rule="nonzero"/></svg>